# xmcd
# 
# Track frame offsets:
#     150
#     34603
#     50344
#     70894
#     83424
#     102214
#     120553
#     139097
#     149801
#     160759
#     175110
#     205765
# 
# Disc length: 2907
# 
# Revision: 2
# Processed by: cddbd v1.5.2PL0 Copyright (c) Steve Scherf et al.
# Submitted via: fre:ac v1.0.31
# 
DISCID=9e0b590c
DTITLE=Stevie Ray Vaughan and Double Trouble - The Complete Epic Recordings Collection
DYEAR=0
DGENRE=Blues
TTITLE0=Tin Pan Alley (aka Roughest Place in Town) [1982 Version]
TTITLE1=Empty Arms [1984 Version]
TTITLE2=Come On (Pt. III) [1984 Version]
TTITLE3=Look at Little Sister [1984 Version]
TTITLE4=The Sky Is Crying [1984 Version]
TTITLE5=Hide Away
TTITLE6=Give Me Back My Wig
TTITLE7=Boot Hill [1984 Version]
TTITLE8=Wham
TTITLE9=Close to You
TTITLE10=Little Wing
TTITLE11=Stang's Swang [Alternate Version]
EXTD=
EXTT0=
EXTT1=
EXTT2=
EXTT3=
EXTT4=
EXTT5=
EXTT6=
EXTT7=
EXTT8=
EXTT9=
EXTT10=
EXTT11=
PLAYORDER=
